<?xml version="1.0" encoding="utf-8"?>
<!-- Svg Vector Icons : http://www.onlinewebfonts.com/icon -->
<!DOCTYPE svg PUBLIC "-//W3C//DTD SVG 1.1//EN" "http://www.w3.org/Graphics/SVG/1.1/DTD/svg11.dtd">
<svg version="1.1" xmlns="http://www.w3.org/2000/svg" xmlns:xlink="http://www.w3.org/1999/xlink" fill="white" x="0px" y="0px" viewBox="0 0 1000 1000" enable-background="new 0 0 1000 1000" xml:space="preserve">
<g><g transform="translate(0.000000,511.000000) scale(0.100000,-0.100000)"><path d="M4933.4,4972.8c-23.5-19.6-47-68.5-54.8-107.7c-9.8-62.7-2-80.3,50.9-133.1l60.7-62.7v-507.1V3655h58.7h58.8v515v516.9l48.9,45C5303.5,4871,5090.1,5100.1,4933.4,4972.8z"/><path d="M5538.5,4665.4c-80.3-15.7-184.1-37.2-229.1-50.9l-84.2-25.5v-319.2v-317.2l201.7,64.6c252.6,82.2,483.6,119.4,601.1,94l88.1-17.6l5.9-287.8l5.9-287.8h92c387.7,2,761.7,229.1,930.1,567.8c105.7,207.6,99.9,229.1-39.2,144.9c-156.6-94-280-127.3-479.7-127.3c-127.3,0-203.6,11.7-303.5,45l-133.2,47l-9.8,203.6l-9.8,205.6l-76.4,37.2C6002.5,4688.9,5736.2,4700.6,5538.5,4665.4z"/><path d="M4823.8,3398.5c-509.1-526.7-1930.6-1437.2-3483.4-2230.2c-266.3-137.1-477.8-254.5-468-260.4c25.5-15.7,798.9-164.5,1076.9-205.6l238.9-37.2l221.3,176.2c1029.9,820.4,1866,1676.1,2363.4,2422.1C4943.2,3518,4947.1,3527.8,4823.8,3398.5z"/><path d="M5119.4,3365.3c246.7-397.5,628.5-857.6,1123.9-1356.9c415.1-415.1,710.8-681.4,1219.9-1090.6l328.9-264.3l346.6,52.9c332.9,50.9,922.3,158.6,982.9,180.1c15.7,5.9-186,119.4-460.1,260.4c-1576.2,806.7-2676.6,1515.5-3571.5,2300.7C5054.8,3478.8,5060.7,3461.2,5119.4,3365.3z"/><path d="M4953,3308.5c-115.5-644.2-685.3-1727-1378.5-2623.8c-60.7-78.3-103.8-144.9-96-150.8c7.8-3.9,254.6-19.6,550.2-31.3c524.8-25.4,1981.5-15.7,2334,11.8l148.8,11.7l-186,248.7c-663.8,881.1-1118.1,1742.7-1294.3,2455.4l-52.9,213.4L4953,3308.5z"/><path d="M662.9,557.4V391l250.6-50.9C1957.2,120.8,3278.9-30,4398.9-59.4l473.8-11.7v-605v-605l-43.1,11.7c-105.7,29.4-307.4,111.6-340.7,137.1c-33.3,25.5-31.3,27.4,47,29.4c45,0,82.2,5.9,82.2,15.7c-2,7.9-45,33.3-97.9,58.7c-58.7,27.4-127.3,82.2-170.4,137.1c-219.3,268.3-305.4,317.2-550.2,317.2h-117.5l9.8,78.3c11.7,88.1-3.9,97.9-80.3,37.2c-41.1-31.3-50.9-56.8-50.9-121.4v-82.2l-70.5,105.7c-66.6,99.9-74.4,103.8-97.9,70.5c-41.1-54.8-33.3-103.8,23.5-160.6l49-49l-41.1-29.4c-84.2-58.7-113.6-111.6-166.4-289.8c-31.3-101.8-70.5-203.6-92-223.2c-45-49-45-123.4,0-176.2c23.5-29.4,58.7-41.1,127.3-45.1c86.2-2,97.9,3.9,162.5,80.3c82.2,94,158.6,139,240.8,139c49,0,68.5-13.7,109.7-86.1c54.8-94,62.7-172.3,41.1-364.2c-13.7-113.6-7.8-148.8,45-315.2c84.2-260.4,82.2-274.1-41.1-366.2c-137.1-101.8-182.1-154.7-227.1-258.5c-43.1-97.9-94-479.7-74.4-550.2c5.9-25.5,72.5-117.5,144.9-203.7c139-162.5,225.2-219.3,258.5-166.4c31.3,50.9,21.5,238.9-15.7,313.3c-35.2,68.5-43.1,72.5-103.8,48.9c-45-17.6-88.1,33.3-103.8,117.5c-9.8,52.9-3.9,94,27.4,154.7c45,94,125.3,144.9,368.1,236.9c170.4,62.6,250.6,125.3,268.3,207.5l13.7,60.7l50.9-50.9c62.7-58.8,238.9-141,342.7-158.6l72.5-13.7v-683.4v-683.3h-270.2c-1026,0-2956.6,223.2-3828,440.5l-52.9,13.7l3.9-397.5l5.9-397.5l205.6-45c765.6-164.5,1909.1-311.3,2966.4-379.8c475.8-31.3,1811.2-31.3,2281.1,0c1041.7,68.5,2046.2,197.8,2864.6,368.1l248.7,50.9v389.7c0,313.3-5.9,387.7-27.4,387.7c-13.7,0-135.1-21.5-268.2-49c-1073-219.3-2592.5-381.8-3583.2-381.8h-330.9l3.9,699l5.9,701l137.1,33.3c207.5,49,315.2,45,372-13.7c82.2-80.3,64.6-119.4-119.4-291.8c-195.8-184-223.2-229.1-223.2-368.1c1.9-174.3,117.5-360.3,217.3-344.6c64.6,9.8,121.4,97.9,123.4,195.8c2,72.5-5.9,88.1-60.7,123.4c-35.2,21.5-62.7,48.9-64.6,60.7c0,47,325,332.9,469.9,409.2c133.2,70.5,146.9,84.2,152.7,142.9c3.9,47-7.8,84.2-43.1,131.2c-27.4,37.2-50.9,76.4-50.9,88.1c0,9.8,23.5,66.6,54.8,123.3c45,86.2,52.9,129.2,56.8,272.2c2,95.9,9.8,180.1,15.7,191.9c5.9,9.8,41.1,19.6,78.3,19.6c111.6,0,129.2-49,115.5-303.5c-11.8-180.2-7.8-236.9,21.5-321.1c64.6-193.8,254.6-325,415.1-283.9c92,23.5,99.9,50.9,25.5,80.3c-121.4,45-178.2,287.8-170.4,712.7c3.9,236.9,0,270.2-39.2,342.7c-50.9,94-121.4,144.9-221.3,158.6c-88.1,11.7-188-35.2-205.6-96c-35.3-129.2-107.7-244.8-107.7-172.3c0,9.8-31.3,49-70.5,86.2c-105.7,103.8-227.1,135.1-526.7,139c-139,2-278,3.9-307.4,5.9l-54.8,3.9v701v702.9l534.5,11.7c789.1,17.6,1605.6,88.1,2441.7,211.5c391.6,56.8,1051.5,176.2,1200.3,215.4l72.5,19.6v162.5v162.5l-327-64.6C7823.5,410.6,6319.7,267.6,5039.2,267.6c-1280.6,0-2792.2,141-3974.8,372C892,672.9,731.5,706.2,708,712.1C664.9,721.9,662.9,718,662.9,557.4z M4872.7-1386.9c0-41.1-5.9-47-33.3-33.3c-19.6,9.8-49,23.5-64.6,29.4c-21.5,5.9-15.7,13.7,19.6,29.4C4866.9-1330.1,4872.7-1332.1,4872.7-1386.9z"/><path d="M980.1-879.8c-23.5-15.7-43.1-49-43.1-72.5c-2-41.1-3.9-41.1-41.1,11.7c-21.5,29.4-49,49-58.7,41.1c-27.4-15.7-21.5-78.3,11.7-105.7c25.5-21.5,23.5-29.4-17.6-68.5c-27.4-25.4-62.7-95.9-80.3-164.5c-19.6-64.6-47-129.2-60.7-141c-33.3-27.4-35.2-80.3-3.9-111.6c45-45,135.1-27.4,213.4,45c92,82.2,137.1,86.2,193.8,15.7c39.2-48.9,41.1-70.5,31.3-188c-9.8-103.8-3.9-154.7,27.4-242.8c21.5-62.6,39.2-127.3,39.2-144.9c0-19.6-39.2-66.6-86.2-105.7c-111.6-92-146.9-170.4-162.5-360.3l-11.7-154.7l86.2-101.8c115.5-135.1,148.8-152.7,178.2-88.1c15.7,37.2,15.7,68.5-2,127.3c-19.6,64.6-31.3,78.3-72.5,78.3c-62.7,0-92,72.5-62.7,158.6c15.7,47,47,72.4,141,117.5c64.6,31.3,129.2,56.8,141,56.8c41.1,0,125.3,80.3,125.3,119.5c0,33.3,9.8,29.4,84.2-23.5c107.7-76.4,250.6-92,417.1-48.9c182.1,47,258.5,43.1,285.9-17.6c21.5-47,13.7-58.7-99.9-174.3c-141-142.9-166.4-225.2-105.7-342.7c68.5-129.2,152.7-131.2,189.9-3.9c15.7,56.8,11.7,68.5-35.2,105.7l-52.9,43.1l94,90.1c50.9,50.9,144.9,123.3,207.5,162.5c60.7,39.2,111.6,80.3,111.6,92c0,11.7-15.7,47-33.3,78.3c-29.4,50.9-31.3,64.6-7.8,121.4c15.7,33.3,33.3,119.5,39.2,189.9c9.8,115.5,15.7,127.3,58.7,133.1c66.6,9.8,80.3-25.5,76.4-201.7c-2-115.5,5.9-176.2,31.3-229.1c39.2-82.2,137.1-152.7,213.4-152.7c62.7,0,90.1,37.2,45,62.7c-70.5,39.2-97.9,135.1-101.8,374c-2,127.3-13.7,256.5-27.4,285.9c-27.4,70.5-92,103.8-176.2,95.9c-66.6-5.9-82.2-23.5-119.4-123.3c-21.5-58.8-21.5-58.8-52.9-17.6c-80.3,97.9-133.2,113.6-422.9,127.3c-150.8,5.9-301.5,23.5-334.8,37.2c-58.7,23.5-58.7,23.5-13.7,41.1c45,17.6,43.1,56.8-1.9,56.8c-13.7,0-66.6,21.5-121.4,47c-72.5,35.2-86.2,48.9-52.9,48.9c48.9,2,60.7,41.1,11.7,41.1c-17.6,0-92,62.7-166.4,141l-133.1,141l-129.2,7.8l-129.2,7.9l11.7,56.8C1040.8-838.7,1038.9-838.7,980.1-879.8z"/><path d="M7265.5-891.5c-13.7-13.7-23.5-45-23.5-72.4c0-49,0-49-39.2,13.7c-21.5,33.3-47,62.7-58.8,62.7c-29.4,0-23.5-80.3,9.8-117.5c27.4-31.3,25.5-37.2-15.7-64.6c-29.4-19.6-56.8-66.6-72.4-125.3c-13.7-50.9-43.1-127.3-66.6-168.4c-48.9-90.1-27.4-137.1,64.6-146.8c49-5.9,80.3,7.8,141,62.6c95.9,88.1,142.9,90.1,195.8,7.8c33.3-54.8,37.2-84.2,27.4-186c-9.8-95.9-3.9-148.8,31.3-258.4l45-139l-109.7-101.8c-60.7-56.8-115.5-125.3-121.4-152.7c-23.5-101.8-45-305.5-35.2-332.9c15.7-45,160.6-213.4,201.7-236.9c54.8-27.4,84.2,56.8,56.8,160.6c-17.6,62.6-29.4,76.4-70.5,76.4c-31.3,0-54.8,15.7-70.5,49c-35.2,78.3,19.6,172.3,125.3,217.4c205.6,90,280,135.1,285.9,178.2c5.9,41.1,7.8,41.1,90.1-15.7c105.7-76.4,248.7-92,415.1-48.9c166.4,43.1,256.5,41.1,282-5.9c31.3-62.7,23.5-78.3-68.5-142.9c-49-35.3-88.1-68.5-88.1-76.4c0-9.8-21.5-48.9-49-88.1c-64.6-94-62.7-141,9.8-238.9c70.5-99.9,123.4-105.8,166.4-23.5c37.2,70.5,23.5,129.2-31.3,146.8c-19.6,7.9-37.2,19.6-37.2,27.4c0,31.3,229.1,233,309.4,274.1c103.8,52.9,115.5,82.2,66.6,162.5c-39.2,62.7-39.2,66.6-3.9,133.1c23.5,43.1,37.2,109.7,39.2,182.1c0,119.5,31.3,158.6,96,117.5c25.4-15.7,31.3-54.8,31.3-193.8c0-199.7,31.3-280,133.1-340.7c68.5-43.1,125.3-48.9,170.4-19.6c23.5,13.7,19.6,23.5-23.5,56.8c-68.5,54.8-94,170.4-94,421c0,191.9-3.9,207.5-50.9,266.3c-45.1,52.9-62.7,60.7-133.2,54.8c-72.4-5.9-84.2-13.7-119.4-90.1l-41.1-84.2l-47,50.9c-80.3,86.2-115.5,95.9-401.4,107.7c-150.8,7.9-299.6,25.5-332.9,39.2l-58.7,23.5l47,17.6c60.7,23.5,41.1,39.2-115.5,97.9c-119.4,43.1-123.4,47-68.5,56.8l58.7,11.8l-49,25.5c-27.4,13.7-103.8,82.2-168.4,154.7l-119.4,129.2l-133.1,7.8c-125.3,7.9-129.2,9.8-119.4,54.8C7341.8-864.1,7306.6-850.4,7265.5-891.5z"/><path d="M1416.8-2273.9c-64.6-54.8-170.4-252.6-156.6-295.7c19.6-64.6,103.8-139,156.6-139c29.4,0,49,11.7,49,27.4c0,54.8-23.5,90.1-60.7,90.1c-45,0-68.5,78.3-39.2,131.2c9.8,21.5,50.9,60.7,90.1,86.2c47,31.3,68.5,60.7,64.6,86.1C1512.7-2236.7,1465.7-2230.8,1416.8-2273.9z"/><path d="M7708-2279.8c-31.3-21.5-54.8-48.9-54.8-58.8c0-9.8-21.5-52.9-48.9-95.9c-62.7-99.8-60.7-139,7.8-213.4c70.5-76.4,170.3-88.1,150.8-15.7c-5.9,23.5-11.7,48.9-11.7,58.8c0,7.8-17.6,13.7-37.2,13.7c-37.2,0-60.7,35.2-60.7,92c0,15.7,41.1,66.6,92,113.6c60.7,56.8,86.1,94,78.3,115.5C7807.8-2228.9,7772.6-2230.8,7708-2279.8z"/><path d="M2517.2-2391.4c-29.4-17.6-52.9-39.2-52.9-49c0-7.8-21.5-48.9-49-88.1c-66.6-95.9-62.7-168.4,7.8-240.8c66.6-66.6,139-76.4,139-19.6c0,62.6-21.5,97.9-50.9,86.1c-31.3-11.7-72.4,76.4-54.8,119.5c5.9,13.7,45,54.8,88.1,88.1c41.1,35.3,76.4,74.4,76.4,88.1C2621-2364,2574-2358.1,2517.2-2391.4z"/><path d="M8833.8-2381.6c-25.4-9.8-76.3-76.4-113.6-142.9c-66.6-119.5-68.5-127.3-39.2-182.1c56.8-109.7,186-162.5,186-74.4c0,56.8-29.4,99.9-54.8,84.2c-21.6-13.7-62.7,45-62.7,88.1c0,13.7,41.1,62.6,92,109.6c80.3,72.5,90.1,88.1,64.6,111.6C8884.8-2367.9,8865.2-2365.9,8833.8-2381.6z"/><path d="M4320.6-2642c-50.9-37.2-97.9-88.1-105.7-109.7c-5.9-21.5-47-94-88.1-158.6c-43.1-64.6-76.4-137.1-76.4-160.6c0-105.7,182.1-283.9,291.7-283.9c33.3,0,41.1,11.7,41.1,56.8c0,97.9-35.2,164.5-78.3,152.7c-74.4-19.6-125.3,113.6-78.3,201.7c11.8,19.6,72.5,78.3,137.1,127.3c119.4,92,137.1,131.2,97.9,207.6C4434.1-2559.8,4430.2-2561.7,4320.6-2642z"/><path d="M6033.8-2841.7c-47-29.4-84.2-64.6-84.2-78.3c0-13.7-35.2-84.2-78.3-154.7c-43.1-72.5-78.3-148.8-78.3-172.3c0-72.5,109.6-215.4,193.9-254.5c123.3-54.8,160.5-15.7,121.4,127.3c-9.8,37.2-27.4,49-68.5,50.9c-64.6,2-90.1,35.3-90.1,117.5c0,74.4,49,139,176.2,233c105.7,78.3,117.5,103.8,62.7,152.7C6141.5-2777.1,6129.8-2777.1,6033.8-2841.7z"/></g></g>
</svg>